<svg id="Layer_1" data-name="Layer 1" xmlns="http://www.w3.org/2000/svg" viewBox="0 0 563.5 89.41"><defs><style>.cls-1,.cls-2{fill:#fff;}.cls-1{stroke:#000;stroke-miterlimit:10;}.cls-2{font-size:13px;font-family:Adrianna-Demibold, Adrianna;font-weight:700;}.cls-3{letter-spacing:-0.03em;}.cls-4{letter-spacing:-0.11em;}.cls-5{letter-spacing:-0.03em;}.cls-6{letter-spacing:-0.02em;}.cls-7{letter-spacing:-0.05em;}.cls-8{letter-spacing:-0.02em;}.cls-9{letter-spacing:-0.03em;}.cls-10{letter-spacing:-0.12em;}.cls-11{letter-spacing:-0.03em;}.cls-12{letter-spacing:-0.05em;}.cls-13{letter-spacing:-0.04em;}.cls-14{letter-spacing:-0.09em;}.cls-15{letter-spacing:-0.01em;}.cls-16{letter-spacing:-0.05em;}</style></defs><title>ABOUT-ME</title><path d="M458.74,133l-2.45-6.64-11.76,0L442,133h-5.2l11.68-29.75h4.44L464.12,133Zm-8.25-22.51h0l-4.19,11.09h8.34Z" transform="translate(-268.25 -100.59)"/><path d="M481.67,133H468.3l0-29.66h12.95c5.63,0,9.14,3.68,9.14,8.17a6.8,6.8,0,0,1-4.06,6.43V118c2.12.47,4.32,3.6,4.32,6.81C490.69,129.85,486.41,133,481.67,133Zm-.85-25h-7.24v8l6.81,0c3,0,5-1.82,5-4.06S483.87,107.93,480.83,108Zm-.13,12.36h-7.11v8h6.81c3,0,4.87-1.65,4.87-3.81S483.75,120.37,480.7,120.37Z" transform="translate(-268.25 -100.59)"/><path d="M510.32,133.78c-7.19,0-14.89-5.33-14.89-15.57,0-10.7,7.7-15.74,14.89-15.74s14.85,5.63,14.85,15.82S517.47,133.78,510.32,133.78Zm0-26.11c-5.84,0-9.73,4.65-9.73,10.62,0,5.71,3.89,10.28,9.73,10.28S520,124.14,520,118.3,516.11,107.68,510.32,107.68Z" transform="translate(-268.25 -100.59)"/><path d="M529.9,103.32h5.33v15c0,7.49,3,9.65,7.28,9.65,4,0,7.07-3,7.07-9.86l0-14.77h5.37v14.47c0,9.65-4.7,15.66-12.4,15.66-7.87,0-12.69-6-12.65-15.23Z" transform="translate(-268.25 -100.59)"/><path d="M575.51,108.19V133h-5.46l0-24.79H559.94v-4.87h25.64v4.87Z" transform="translate(-268.25 -100.59)"/><path d="M635.34,133h-4.87l-1.57-17.47-.08-.08-9.14,17.05h-1.61l-8.63-16.92-.08.13L607.83,133H603l2.07-29.66h3.17l10.83,20.35h0l11-20.35H633Z" transform="translate(-268.25 -100.59)"/><path d="M642.23,133V103.32h20.52v4.87H647.69v7.74h12.86v4.7H647.69v7.45h15.49V133Z" transform="translate(-268.25 -100.59)"/><path class="cls-1" d="M458.74,131.59l-2.45-6.64-11.76,0-2.5,6.6h-5.2l11.68-29.75h4.44l11.17,29.75Zm-8.25-22.51h0l-4.19,11.09h8.34Z" transform="translate(-268.25 -100.59)"/><path class="cls-1" d="M481.67,131.59H468.3l0-29.66h12.95c5.63,0,9.14,3.68,9.14,8.17a6.8,6.8,0,0,1-4.06,6.43v.08c2.12.47,4.32,3.6,4.32,6.81C490.69,128.46,486.41,131.59,481.67,131.59Zm-.85-25h-7.24v8l6.81,0c3,0,5-1.82,5-4.06S483.87,106.54,480.83,106.63ZM480.7,119h-7.11v8h6.81c3,0,4.87-1.65,4.87-3.81S483.75,119,480.7,119Z" transform="translate(-268.25 -100.59)"/><path class="cls-1" d="M510.32,132.4c-7.19,0-14.89-5.33-14.89-15.57,0-10.7,7.7-15.74,14.89-15.74s14.85,5.63,14.85,15.82S517.47,132.4,510.32,132.4Zm0-26.11c-5.84,0-9.73,4.65-9.73,10.62,0,5.71,3.89,10.28,9.73,10.28s9.69-4.44,9.69-10.28S516.11,106.29,510.32,106.29Z" transform="translate(-268.25 -100.59)"/><path class="cls-1" d="M529.9,101.93h5.33v15c0,7.49,3,9.65,7.28,9.65,4,0,7.07-3,7.07-9.86l0-14.77h5.37V116.4c0,9.65-4.7,15.66-12.4,15.66-7.87,0-12.69-6-12.65-15.23Z" transform="translate(-268.25 -100.59)"/><path class="cls-1" d="M575.51,106.8v24.79h-5.46l0-24.79H559.94v-4.87h25.64v4.87Z" transform="translate(-268.25 -100.59)"/><path class="cls-1" d="M635.34,131.59h-4.87l-1.57-17.47-.08-.08-9.14,17.05h-1.61l-8.63-16.92-.08.13-1.52,17.31H603l2.07-29.66h3.17l10.83,20.35h0l11-20.35H633Z" transform="translate(-268.25 -100.59)"/><path class="cls-1" d="M642.23,131.59V101.93h20.52v4.87H647.69v7.74h12.86v4.7H647.69v7.45h15.49v4.91Z" transform="translate(-268.25 -100.59)"/><text class="cls-2" transform="translate(157.87 63.4)">FIERCE FEMINI<tspan class="cls-3" x="96.43" y="0">S</tspan><tspan class="cls-4" x="104.82" y="0">T</tspan><tspan x="112.33" y="0">, P</tspan><tspan class="cls-5" x="127.97" y="0">R</tspan><tspan x="136.78" y="0">OUD INT</tspan><tspan class="cls-6" x="193.07" y="0">R</tspan><tspan class="cls-7" x="201.88" y="0">O</tspan><tspan class="cls-8" x="211.62" y="0">V</tspan><tspan x="220.63" y="0">E</tspan><tspan class="cls-9" x="228.68" y="0">R</tspan><tspan class="cls-10" x="237.37" y="0">T</tspan><tspan x="244.89" y="0">, </tspan><tspan class="cls-11" x="-22.24" y="15.6">V</tspan><tspan x="-13.42" y="15.6">O</tspan><tspan class="cls-12" x="-3.05" y="15.6">C</tspan><tspan x="5.45" y="15.6">AL A</tspan><tspan class="cls-13" x="35.84" y="15.6">D</tspan><tspan class="cls-11" x="44.69" y="15.6">V</tspan><tspan x="53.52" y="15.6">O</tspan><tspan class="cls-12" x="63.88" y="15.6">C</tspan><tspan class="cls-14" x="72.38" y="15.6">A</tspan><tspan x="80.23" y="15.6">TE </tspan><tspan class="cls-15" x="101.45" y="15.6">F</tspan><tspan x="109.22" y="15.6">OR LIFE</tspan><tspan class="cls-16" x="161.31" y="15.6">L</tspan><tspan x="168.83" y="15.6">ONG LEARNING</tspan></text></svg>