<svg id="Layer_1" data-name="Layer 1" xmlns="http://www.w3.org/2000/svg" viewBox="0 0 498 92.43"><defs><style>.cls-1,.cls-2{fill:#fff;}.cls-1{stroke:#000;stroke-miterlimit:10;}.cls-2{font-size:13px;font-family:Adrianna-Demibold, Adrianna;font-weight:700;}.cls-3{letter-spacing:-0.09em;}.cls-4{letter-spacing:-0.03em;}.cls-5{letter-spacing:-0.02em;}.cls-6{letter-spacing:-0.02em;}.cls-7{letter-spacing:-0.02em;}.cls-8{letter-spacing:-0.04em;}.cls-9{letter-spacing:-0.1em;}.cls-10{letter-spacing:-0.02em;}.cls-11{letter-spacing:-0.06em;}.cls-12{letter-spacing:-0.04em;}</style></defs><title>HOME</title><path d="M444.62,105.61v-9.9H434.51v9.9h-4.59v-25h4.63V91.3h10.07V80.66h4.63v25Z" transform="translate(-301 -78.57)"/><path d="M455.73,105.61v-25h4.63v25Z" transform="translate(-301 -78.57)"/><path d="M466.91,110.38l-2-1a6,6,0,0,0,2.14-3.67c0-.11,0-.18,0-.21a2.52,2.52,0,0,1-.75.11c-.82,0-1.67-1.14-1.67-2.53a2.6,2.6,0,0,1,2.63-2.46c1.6,0,2.6,1.25,2.6,3.28C469.87,106.5,468.48,109.49,466.91,110.38Z" transform="translate(-301 -78.57)"/><path d="M486.67,105.61v-25h4.63v25Z" transform="translate(-301 -78.57)"/><path d="M499.06,91.51h-3l-.32-7.44,0-3.42h3.63v3.42Z" transform="translate(-301 -78.57)"/><path d="M531.13,105.61H527l-1.32-14.7-.07-.07L518,105.18h-1.35l-7.26-14.24-.07.11L508,105.61h-4.06l1.74-25h2.67l9.11,17.12h0l9.22-17.12h2.46Z" transform="translate(-301 -78.57)"/><path d="M574.46,105.61h-4.09L569,90.91l-.07-.07-7.69,14.35h-1.35l-7.26-14.24-.07.11-1.28,14.56h-4.06l1.74-25h2.67l9.11,17.12h0L570,80.66h2.46Z" transform="translate(-301 -78.57)"/><path d="M596.64,105.61,594.57,100l-9.9,0-2.1,5.55H578.2l9.82-25h3.74l9.4,25Zm-6.94-18.94h0L586.13,96h7Z" transform="translate(-301 -78.57)"/><path d="M619.63,105.61s-4.59-7.26-6.51-9.9h-3.52l0,9.9H605v-25h11.36c4.73,0,8.12,3,8.12,7.3a7.62,7.62,0,0,1-6.59,7.55l.32.14,6,9.54v.43ZM616.5,84.82h-6.91v6.55l6.59.07c2.56,0,4.06-1.57,4.06-3.42S619.1,84.82,616.5,84.82Z" transform="translate(-301 -78.57)"/><path d="M640.64,84.75v20.86H636l0-20.86h-8.47V80.66h21.57v4.09Z" transform="translate(-301 -78.57)"/><path d="M665.56,105.61,663.49,100l-9.9,0-2.1,5.55h-4.38l9.82-25h3.74l9.4,25Zm-6.94-18.94h0L655.06,96h7Z" transform="translate(-301 -78.57)"/><path class="cls-1" d="M444.62,104.1V94.2H434.51v9.9h-4.59v-25h4.63V89.78h10.07V79.14h4.63v25Z" transform="translate(-301 -78.57)"/><path class="cls-1" d="M455.73,104.1v-25h4.63v25Z" transform="translate(-301 -78.57)"/><path class="cls-1" d="M466.91,108.87l-2-1a6,6,0,0,0,2.14-3.67c0-.11,0-.18,0-.21a2.52,2.52,0,0,1-.75.11c-.82,0-1.67-1.14-1.67-2.53a2.6,2.6,0,0,1,2.63-2.46c1.6,0,2.6,1.25,2.6,3.28C469.87,105,468.48,108,466.91,108.87Z" transform="translate(-301 -78.57)"/><path class="cls-1" d="M486.67,104.1v-25h4.63v25Z" transform="translate(-301 -78.57)"/><path class="cls-1" d="M499.06,90h-3l-.32-7.44,0-3.42h3.63v3.42Z" transform="translate(-301 -78.57)"/><path class="cls-1" d="M531.13,104.1H527l-1.32-14.7-.07-.07L518,103.67h-1.35l-7.26-14.24-.07.11L508,104.1h-4.06l1.74-25h2.67l9.11,17.12h0l9.22-17.12h2.46Z" transform="translate(-301 -78.57)"/><path class="cls-1" d="M574.46,104.1h-4.09L569,89.39l-.07-.07-7.69,14.35h-1.35l-7.26-14.24-.07.11-1.28,14.56h-4.06l1.74-25h2.67l9.11,17.12h0L570,79.14h2.46Z" transform="translate(-301 -78.57)"/><path class="cls-1" d="M596.64,104.1l-2.06-5.59-9.9,0-2.1,5.55H578.2l9.82-25h3.74l9.4,25Zm-6.94-18.94h0l-3.52,9.33h7Z" transform="translate(-301 -78.57)"/><path class="cls-1" d="M619.63,104.1s-4.59-7.26-6.51-9.9h-3.52l0,9.9H605v-25h11.36c4.73,0,8.12,3,8.12,7.3A7.62,7.62,0,0,1,617.89,94l.32.14,6,9.54v.43ZM616.5,83.31h-6.91v6.55l6.59.07c2.56,0,4.06-1.57,4.06-3.42S619.1,83.31,616.5,83.31Z" transform="translate(-301 -78.57)"/><path class="cls-1" d="M640.64,83.23V104.1H636l0-20.86h-8.47V79.14h21.57v4.09Z" transform="translate(-301 -78.57)"/><path class="cls-1" d="M665.56,104.1l-2.06-5.59-9.9,0-2.1,5.55h-4.38l9.82-25h3.74l9.4,25Zm-6.94-18.94h0l-3.52,9.33h7Z" transform="translate(-301 -78.57)"/><text class="cls-2" transform="translate(143.17 59.41)">A CRE<tspan class="cls-3" x="39.51" y="0">A</tspan><tspan x="47.36" y="0">T</tspan><tspan class="cls-4" x="56.37" y="0">I</tspan><tspan class="cls-5" x="60.31" y="0">V</tspan><tspan x="69.31" y="0">E P</tspan><tspan class="cls-4" x="90.13" y="0">R</tspan><tspan x="98.94" y="0">OJ</tspan><tspan class="cls-6" x="113.42" y="0">E</tspan><tspan class="cls-7" x="121.16" y="0">C</tspan><tspan x="130.04" y="0">T MAN</tspan><tspan class="cls-8" x="173.43" y="0">A</tspan><tspan x="181.92" y="0">GER,</tspan><tspan x="-57.19" y="15.6">CURRENT</tspan><tspan class="cls-9" x="6.38" y="15.6">L</tspan><tspan x="13.3" y="15.6">Y L</tspan><tspan class="cls-10" x="33.85" y="15.6">I</tspan><tspan x="37.79" y="15.6">VING AND </tspan><tspan class="cls-11" x="106.82" y="15.6">W</tspan><tspan x="118.58" y="15.6">ORKING IN SIN</tspan><tspan class="cls-12" x="214.55" y="15.6">G</tspan><tspan x="223.67" y="15.6">APORE</tspan></text></svg>