<svg id="Layer_1" data-name="Layer 1" xmlns="http://www.w3.org/2000/svg" viewBox="0 0 526 71.06"><defs><style>.cls-1,.cls-2{fill:#fff;}.cls-1{stroke:#000;stroke-miterlimit:10;}.cls-2{font-size:13px;font-family:Adrianna-Demibold, Adrianna;font-weight:700;}.cls-3{letter-spacing:-0.06em;}</style></defs><title>MY-BLOG</title><path d="M490.91,100h-4.56L484.88,83.6l-.08-.08-8.57,16h-1.51l-8.1-15.88-.08.12L465.11,100h-4.53l1.95-27.83h3l10.16,19.09h0L486,72.17h2.74Z" transform="translate(-287 -68.94)"/><path d="M509.25,89.48V100h-5.12l0-10.76L495,72.17h5.16l6.79,12.66,6.43-12.66h5.12Z" transform="translate(-287 -68.94)"/><path d="M547.36,100H534.82l0-27.83H547c5.28,0,8.57,3.45,8.57,7.66a6.38,6.38,0,0,1-3.81,6v.08c2,.44,4,3.37,4,6.39C555.82,97.06,551.81,100,547.36,100Zm-.79-23.42h-6.79V84l6.39,0c2.86,0,4.68-1.71,4.68-3.81S549.42,76.5,546.57,76.58Zm-.12,11.59h-6.67v7.46h6.39c2.86,0,4.56-1.55,4.56-3.57S549.31,88.17,546.45,88.17Z" transform="translate(-287 -68.94)"/><path d="M561.45,100l0-27.83h5.12v23h14.53V100Z" transform="translate(-287 -68.94)"/><path d="M597.18,100.75c-6.75,0-14-5-14-14.61,0-10,7.22-14.77,14-14.77s13.93,5.28,13.93,14.85S603.89,100.75,597.18,100.75Zm0-24.49c-5.48,0-9.13,4.37-9.13,10,0,5.36,3.65,9.65,9.13,9.65s9.09-4.17,9.09-9.65S602.62,76.26,597.18,76.26Z" transform="translate(-287 -68.94)"/><path d="M635.33,98.41a16.28,16.28,0,0,1-7.58,2c-6,0-12.66-5-12.66-14.45s6.75-14.25,12.7-14.25a20,20,0,0,1,6,1,17.28,17.28,0,0,1,5.6,3.73l-2.14,3.69a28.66,28.66,0,0,0-4.37-2.54,12.47,12.47,0,0,0-5.16-1c-4.6,0-7.94,3.49-7.94,9.29s3.57,9.57,7.94,9.57A11.12,11.12,0,0,0,635,92.69v-4h-7.66l0-4.29h12.07v11A16,16,0,0,1,635.33,98.41Z" transform="translate(-287 -68.94)"/><path class="cls-1" d="M490.91,98.06h-4.56l-1.47-16.39-.08-.08-8.57,16h-1.51l-8.1-15.88-.08.12-1.43,16.24h-4.53l1.95-27.83h3l10.16,19.09h0L486,70.23h2.74Z" transform="translate(-287 -68.94)"/><path class="cls-1" d="M509.25,87.54V98.06h-5.12l0-10.76L495,70.23h5.16l6.79,12.66,6.43-12.66h5.12Z" transform="translate(-287 -68.94)"/><path class="cls-1" d="M547.36,98.06H534.82l0-27.83H547c5.28,0,8.57,3.45,8.57,7.66a6.38,6.38,0,0,1-3.81,6V84c2,.44,4,3.37,4,6.39C555.82,95.12,551.81,98.06,547.36,98.06Zm-.79-23.42h-6.79V82.1l6.39,0c2.86,0,4.68-1.71,4.68-3.81S549.42,74.56,546.57,74.64Zm-.12,11.59h-6.67V93.7h6.39c2.86,0,4.56-1.55,4.56-3.57S549.31,86.23,546.45,86.23Z" transform="translate(-287 -68.94)"/><path class="cls-1" d="M561.45,98.06l0-27.83h5.12v23h14.53v4.84Z" transform="translate(-287 -68.94)"/><path class="cls-1" d="M597.18,98.82c-6.75,0-14-5-14-14.61,0-10,7.22-14.77,14-14.77s13.93,5.28,13.93,14.85S603.89,98.82,597.18,98.82Zm0-24.49c-5.48,0-9.13,4.37-9.13,10,0,5.36,3.65,9.65,9.13,9.65s9.09-4.17,9.09-9.65S602.62,74.32,597.18,74.32Z" transform="translate(-287 -68.94)"/><path class="cls-1" d="M635.33,96.47a16.28,16.28,0,0,1-7.58,2c-6,0-12.66-5-12.66-14.45s6.75-14.25,12.7-14.25a20,20,0,0,1,6,1,17.28,17.28,0,0,1,5.6,3.73l-2.14,3.69a28.66,28.66,0,0,0-4.37-2.54,12.47,12.47,0,0,0-5.16-1c-4.6,0-7.94,3.49-7.94,9.29s3.57,9.57,7.94,9.57A11.12,11.12,0,0,0,635,90.76v-4h-7.66l0-4.29h12.07v11A16,16,0,0,1,635.33,96.47Z" transform="translate(-287 -68.94)"/><text class="cls-2" transform="translate(166.77 61.04)">SOMETIMES, I WRITE <tspan class="cls-3" x="143.07" y="0">W</tspan><tspan x="154.84" y="0">ORDS</tspan></text></svg>